<?xml version="1.0" encoding="UTF-8" standalone="no"?>
<!-- Created with Inkscape (http://www.inkscape.org/) -->

<svg
   width="67.252441mm"
   height="25.680304mm"
   viewBox="0 0 67.252441 25.680304"
   version="1.1"
   id="svg1"
   inkscape:version="1.4 (86a8ad7, 2024-10-11)"
   sodipodi:docname="logo.svg"
   xmlns:inkscape="http://www.inkscape.org/namespaces/inkscape"
   xmlns:sodipodi="http://sodipodi.sourceforge.net/DTD/sodipodi-0.dtd"
   xmlns="http://www.w3.org/2000/svg"
   xmlns:svg="http://www.w3.org/2000/svg">
  <sodipodi:namedview
     id="namedview1"
     pagecolor="#ffffff"
     bordercolor="#000000"
     borderopacity="0.25"
     inkscape:showpageshadow="2"
     inkscape:pageopacity="0.0"
     inkscape:pagecheckerboard="0"
     inkscape:deskcolor="#d1d1d1"
     inkscape:document-units="mm"
     inkscape:zoom="2.9041807"
     inkscape:cx="75.752862"
     inkscape:cy="23.931018"
     inkscape:window-width="1920"
     inkscape:window-height="1017"
     inkscape:window-x="-8"
     inkscape:window-y="825"
     inkscape:window-maximized="1"
     inkscape:current-layer="layer1" />
  <defs
     id="defs1" />
  <g
     inkscape:label="Layer 1"
     inkscape:groupmode="layer"
     id="layer1"
     transform="translate(-131.4979,-283.89793)">
    <g
       id="g437"
       inkscape:label="psychoterapiasystemowa"
       style="display:inline"
       transform="translate(-503.91983,69.816477)">
      <g
         id="g1429"
         transform="matrix(1.143124,0,0,1.143124,-95.171631,-25.12796)"
         inkscape:label="H&amp;B"
         style="display:inline">
        <path
           id="path1429"
           style="display:inline;fill:#ffffff;fill-opacity:1;stroke:#ffffff;stroke-width:1.74959;stroke-linecap:round;stroke-linejoin:round;stroke-dasharray:none;stroke-opacity:1;paint-order:stroke markers fill"
           d="m 669.3269,228.749 c -0.34816,0.34523 0.0975,0.81758 0.44385,0.96081 0.40709,0.1675 1.40818,-0.0108 0.97809,-0.7121 l 0.0323,0.56939 c 0.28095,0.27959 0.47763,0.44528 1.09797,0.4756 0.54329,-5.1e-4 1.54961,-0.26127 1.37288,-0.82243 0.0706,0.49542 0.41419,0.47996 0.46408,0.49725 0.66321,0.0935 1.10583,-0.29648 1.10582,-0.68574 -9e-5,-0.004 -0.18435,-0.21949 -0.11455,-0.14896 0.14334,0.19199 0.35602,0.23826 0.48831,0.23852 0.39318,0 0.77062,-0.3043 0.77062,-0.68339 -0.0488,-0.40494 -0.36302,-0.66736 -0.81099,-0.66803 0.48345,-0.0832 0.55511,-0.4133 0.54275,-0.65386 0.009,-0.38732 -0.42651,-0.65496 -0.7789,-0.63695 -0.17545,0.0141 -0.43399,0.2323 -0.49584,0.49481 -0.0508,-0.12598 -0.13955,-0.17621 -0.22251,-0.23797 0.46327,-0.11817 0.83322,-0.38666 0.64516,-0.76577 -0.14229,-0.28774 -0.50235,-0.50624 -0.78365,-0.40739 -0.34107,0.12316 -0.4503,0.48139 -0.34199,0.24345 0.16474,-0.34292 -0.0742,-0.74161 -0.53355,-0.89054 -0.11927,-0.0386 -0.2463,-0.0556 -0.37255,-0.0558 -0.38389,-0.001 -0.70601,0.18508 -0.78044,0.34704 -0.0891,0.14088 -0.10217,0.37195 -0.13766,0.40646 0.0754,-0.3418 -0.0978,-0.68468 -0.68983,-0.6978 -0.47058,-0.001 -0.861,0.32012 -0.89259,0.66949 0.005,0.1646 0.0287,0.18632 0.031,0.23906 -0.15344,-0.40691 -0.54655,-0.38073 -0.78672,-0.27509 -0.33606,0.14908 -0.52889,0.6096 -0.18832,0.93176 -0.30858,-0.13101 -0.70723,-0.008 -0.87572,0.20772 -0.23198,0.29865 -0.22228,0.71724 0.0842,0.93499 0.0969,0.0767 0.24711,0.12823 0.28873,0.14624 -0.44495,-0.11395 -0.87864,0.24361 -0.87923,0.62941 2e-5,0.39285 0.3484,0.71496 0.77811,0.71132 0.16764,-0.001 0.26504,-0.0121 0.40898,-0.0469"
           sodipodi:nodetypes="cccccccccccccccccccsscccccccccccsc" />
        <path
           id="path1428"
           style="display:inline;fill:#ffffff;fill-opacity:1;stroke:#ffffff;stroke-width:1.66211;stroke-linecap:round;stroke-linejoin:round;stroke-dasharray:none;stroke-opacity:1;paint-order:stroke markers fill"
           d="m 666.24401,220.59035 c 0.6319,-0.51153 1.19175,-0.48877 1.80499,-0.96181 0.61324,-0.47303 0.98256,-1.29373 1.06782,-1.83487 0.13769,-0.8738 -0.27887,-1.4953 -0.77105,-1.71325 -0.29469,-0.13051 -0.5534,-0.18501 -0.77927,-0.18745 -0.9788,-0.0104 -1.34089,0.59918 -1.34089,0.59918 l -0.0672,-7e-5 c 0,0 -0.31099,-0.60983 -1.28979,-0.59922 -0.22588,0.002 -0.48462,0.057 -0.77932,0.18747 -0.49216,0.21797 -0.90868,0.83942 -0.77101,1.71322 0.0853,0.54115 0.35246,1.39589 0.99975,1.78381 0.64727,0.38793 1.17497,0.50736 1.87306,1.01288 z"
           sodipodi:nodetypes="czsssccssszcc" />
        <path
           id="path1432"
           style="display:inline;fill:#fd9396;fill-opacity:1;stroke:#58315a;stroke-width:1.41192;stroke-linecap:round;stroke-linejoin:round;stroke-miterlimit:3.8;stroke-dasharray:none;stroke-opacity:1;paint-order:stroke markers fill"
           d="m 669.55473,228.63744 c -0.31823,0.31555 0.0891,0.74729 0.40569,0.8782 0.37209,0.1531 1.28712,-0.01 0.894,-0.65088 l 0.0295,0.52044 c 0.2568,0.25556 0.43657,0.407 1.00358,0.43472 0.49658,-4.7e-4 1.41639,-0.23881 1.25485,-0.75173 0.0645,0.45283 0.37859,0.4387 0.42419,0.4545 0.60619,0.0855 1.01076,-0.27099 1.01075,-0.62679 -8e-5,-0.004 -0.1685,-0.20062 -0.1047,-0.13615 0.13101,0.17549 0.32541,0.21778 0.44633,0.21802 0.35937,0 0.70436,-0.27814 0.70436,-0.62464 -0.0446,-0.37013 -0.33181,-0.60999 -0.74126,-0.6106 0.44188,-0.076 0.50738,-0.37777 0.49609,-0.59765 0.008,-0.35402 -0.38985,-0.59865 -0.71194,-0.58219 -0.16037,0.0129 -0.39668,0.21233 -0.45321,0.45227 -0.0464,-0.11515 -0.12756,-0.16106 -0.20338,-0.21751 0.42344,-0.10801 0.76158,-0.35342 0.58969,-0.69994 -0.13006,-0.263 -0.45916,-0.46272 -0.71628,-0.37236 -0.31175,0.11257 -0.41159,0.44 -0.31259,0.22252 0.15058,-0.31344 -0.0678,-0.67786 -0.48768,-0.81398 -0.10901,-0.0353 -0.22512,-0.0508 -0.34052,-0.051 -0.35089,-9.1e-4 -0.64531,0.16917 -0.71334,0.31721 -0.0814,0.12877 -0.0934,0.33997 -0.12583,0.37152 0.0689,-0.31242 -0.0894,-0.62582 -0.63052,-0.63781 -0.43013,-9.2e-4 -0.78698,0.2926 -0.81586,0.61193 0.005,0.15045 0.0262,0.1703 0.0283,0.21851 -0.14025,-0.37193 -0.49957,-0.348 -0.71909,-0.25144 -0.30717,0.13626 -0.48342,0.55719 -0.17213,0.85165 -0.28205,-0.11974 -0.64643,-0.007 -0.80043,0.18986 -0.21204,0.27298 -0.20317,0.65558 0.077,0.85461 0.0886,0.0701 0.22587,0.11721 0.26391,0.13367 -0.4067,-0.10415 -0.80311,0.22267 -0.80364,0.5753 1e-5,0.35908 0.31844,0.65349 0.71121,0.65017 0.15323,-9.2e-4 0.24226,-0.0111 0.37382,-0.0429"
           sodipodi:nodetypes="cccccccccccccccccccsscccccccccccsc" />
        <path
           id="path1433"
           style="display:inline;fill:#fc434a;fill-opacity:1;stroke:#58315a;stroke-width:1.33231;stroke-linecap:round;stroke-linejoin:round;stroke-dasharray:none;stroke-opacity:1;paint-order:stroke markers fill"
           d="m 666.24146,220.36373 c 0.57093,-0.46218 1.07676,-0.44161 1.63084,-0.86901 0.55407,-0.42739 0.88776,-1.16891 0.96479,-1.65784 0.12441,-0.78949 -0.25196,-1.35103 -0.69666,-1.54795 -0.26625,-0.11792 -0.5,-0.16716 -0.70408,-0.16936 -0.88436,-0.009 -1.21152,0.54137 -1.21152,0.54137 l -0.0607,-7e-5 c 0,0 -0.28099,-0.55099 -1.16535,-0.5414 -0.20409,0.002 -0.43786,0.0515 -0.70413,0.16938 -0.44468,0.19694 -0.82101,0.75843 -0.69662,1.54792 0.0771,0.48894 0.31845,1.26121 0.90329,1.61171 0.58482,0.3505 1.06161,0.45841 1.69234,0.91515 z"
           sodipodi:nodetypes="czsssccssszcc" />
      </g>
      <text
         xml:space="preserve"
         style="font-style:normal;font-variant:normal;font-weight:600;font-stretch:normal;font-size:7.71521px;font-family:Kodchasan;-inkscape-font-specification:'Kodchasan Semi-Bold';text-align:start;letter-spacing:0.0717515px;writing-mode:lr-tb;direction:ltr;text-anchor:start;display:inline;fill:#58315a;fill-opacity:1;stroke:#ffffff;stroke-width:0.802188;stroke-linecap:round;stroke-linejoin:round;stroke-dasharray:none;stroke-dashoffset:0.345346;stroke-opacity:1;paint-order:stroke markers fill"
         x="639.23981"
         y="219.75049"
         id="text1976"
         transform="matrix(1.143124,0,0,1.143124,-95.171631,-25.12796)"><tspan
           sodipodi:role="line"
           id="tspan1976"
           style="font-style:normal;font-variant:normal;font-weight:bold;font-stretch:normal;font-size:7.71521px;font-family:Kodchasan;-inkscape-font-specification:'Kodchasan Bold';letter-spacing:0.0717515px;fill:#58315a;fill-opacity:1;stroke:#ffffff;stroke-width:0.802188;stroke-dasharray:none;stroke-dashoffset:0.345346;stroke-opacity:1;paint-order:stroke markers fill"
           x="639.23981"
           y="219.75049">psych   terapia </tspan><tspan
           sodipodi:role="line"
           style="font-style:normal;font-variant:normal;font-weight:bold;font-stretch:normal;font-size:7.71521px;font-family:Kodchasan;-inkscape-font-specification:'Kodchasan Bold';letter-spacing:0.0717515px;fill:#58315a;fill-opacity:1;stroke:#ffffff;stroke-width:0.802188;stroke-dasharray:none;stroke-dashoffset:0.345346;stroke-opacity:1;paint-order:stroke markers fill"
           x="639.23981"
           y="229.3945"
           id="tspan1422">system    wa</tspan></text>
    </g>
    <text
       xml:space="preserve"
       style="font-weight:600;font-size:3.52777px;line-height:1;font-family:Kodchasan;-inkscape-font-specification:'Kodchasan Semi-Bold';text-align:center;writing-mode:lr-tb;direction:ltr;text-anchor:middle;display:inline;fill:#ffffff;fill-opacity:1;stroke:#58315a;stroke-width:0.756999;stroke-linejoin:round;paint-order:stroke markers fill"
       x="160.66739"
       y="286.95401"
       id="text169"
       inkscape:label="karina"><tspan
         sodipodi:role="line"
         id="tspan169"
         style="fill:#ffffff;fill-opacity:1;stroke-width:0.757"
         x="160.66739"
         y="286.95401">Karina Sołokołwska - Kaniewska</tspan></text>
  </g>
</svg>
